<?xml version="1.0" encoding="utf-8"?>
<!-- Generator: Adobe Illustrator 21.1.0, SVG Export Plug-In . SVG Version: 6.00 Build 0)  -->
<svg version="1.1" xmlns="http://www.w3.org/2000/svg" xmlns:xlink="http://www.w3.org/1999/xlink" x="0px" y="0px"
	 viewBox="0 0 300 300" style="enable-background:new 0 0 300 300;" xml:space="preserve">
<style type="text/css">
	.st0{display:none;}
	.st1{display:inline;}
	.st2{fill:#FFFFFF;}
</style>
<g id="Capa_1" class="st0">
	<g class="st1">
		<path class="st2" d="M62.4,119.9c-9.2,0-16.7,7.4-16.7,16.5s7.5,16.5,16.7,16.5s16.7-7.4,16.7-16.5S71.6,119.9,62.4,119.9z
			 M62.4,147.3c-6.1,0-11-4.9-11-10.9s5-10.9,11-10.9s11,4.9,11,10.9S68.4,147.3,62.4,147.3z"/>
		<path class="st2" d="M108,119.9c-9.2,0-16.7,7.4-16.7,16.5s7.5,16.5,16.7,16.5s16.7-7.4,16.7-16.5S117.2,119.9,108,119.9z
			 M108,147.3c-6.1,0-11-4.9-11-10.9s5-10.9,11-10.9s11,4.9,11,10.9S114.1,147.3,108,147.3z"/>
		<path class="st2" d="M176,136.4c0-9.1-7.5-16.5-16.7-16.5s-16.7,7.4-16.7,16.5s7.5,16.5,16.7,16.5S176,145.5,176,136.4z
			 M159.3,147.3c-6.1,0-11-4.9-11-10.9s5-10.9,11-10.9c6.1,0,11,4.9,11,10.9S165.4,147.3,159.3,147.3z"/>
		<path class="st2" d="M229.5,124.8c-2.9,0-6,0.2-9.1,0.6c-4.2-45.7-51.7-81.1-109.9-81.1C49.6,44.3,0,83.6,0,131.9
			c0,26.6,14.9,51.3,40.9,68v57.7l49-39.7c6.6,1,13.6,1.5,20.6,1.5c19.7,0,39.1-4.3,56.1-12.3c11.9,19,36.3,31.1,62.9,31.1
			c9,0,17.7-1.4,25.8-3.9l30,21.6v-39.6c9.5-9.9,14.8-22.2,14.8-34.7C300,150.2,268.4,124.8,229.5,124.8z M166.4,201.1L166.4,201.1
			L166.4,201.1c-16.9,8.3-36.2,12.8-56,12.8c-7.2,0-14.3-0.6-21-1.6l-1.3-0.2l-41.7,33.8v-48.9l-1.3-0.8
			c-25.1-15.7-39.6-39-39.6-64.1c0-45.2,47-82,104.8-82c56.3,0,102.2,34.5,104.5,78.6l0,0.1c0,0.5,0.1,1,0.1,1.5
			c0.1,0.6,0.1,1.2,0.1,1.8C215.2,160,197,185.9,166.4,201.1z M279.4,214.5l0.1,30.4l-23-16.6l-1.7,0.3c-7.9,2.7-16.4,4.1-25.4,4.1
			c-24.4,0-46.8-10.9-57.8-28c30.9-16.3,49.2-43.4,49.2-72.8c0-0.3,0-0.7,0-1c3-0.4,5.8-0.5,8.6-0.5c35.7,0,64.8,23,64.8,51.2
			C294.3,193.3,288.8,205.3,279.4,214.5z"/>
	</g>
</g>
<g id="Capa_2">
	<path class="st2" d="M264.6,155.5l-33.5,27.3l8.3,10.4l20.5-16.7c-3.6,56.6-49.6,101.8-106.1,103.2V262h-0.1V132.1h72.7v-13.4
		h-72.7V91.3c15.1-3.1,26.4-16.6,26.4-32.8c0-18.5-14.8-33.5-33.1-33.5c-18.2,0-33.1,15-33.1,33.5c0,16.2,11.4,29.7,26.4,32.8v27.4
		H67.8v13.4h72.7v147.1c-53.6-5.2-96-49.8-98.5-104.8l19.8,18.8l9-9.8l-34.4-31.2L3,179.5l8.3,10.4L32.1,173
		C34,237.7,86.6,289.7,151,289.7c62.9,0,114.6-49.7,118.7-112.4l20.2,19.2l9-9.8L264.6,155.5z M36.6,169.3L36.6,169.3L36.6,169.3
		L36.6,169.3z M127.3,58.5c0-11.1,8.9-20.1,19.8-20.1c10.9,0,19.8,9,19.8,20.1s-8.9,20.1-19.8,20.1
		C136.2,78.5,127.3,69.5,127.3,58.5z"/>
</g>
</svg>
