<?xml version="1.0" encoding="utf-8"?>
<!-- Generator: Adobe Illustrator 21.1.0, SVG Export Plug-In . SVG Version: 6.00 Build 0)  -->
<svg version="1.1" xmlns="http://www.w3.org/2000/svg" xmlns:xlink="http://www.w3.org/1999/xlink" x="0px" y="0px"
	 viewBox="0 0 300 300" style="enable-background:new 0 0 300 300;" xml:space="preserve">
<style type="text/css">
	.st0{fill:#FBFAFC;}
	.st1{display:none;}
	.st2{display:inline;fill:#FFFFFF;}
	.st3{display:inline;fill:none;stroke:#FBFAFC;stroke-width:16;stroke-miterlimit:10;}
	.st4{display:inline;}
	.st5{fill:none;stroke:#FBFAFC;stroke-width:16;stroke-miterlimit:10;}
</style>
<g id="Capa_1">
	<g>
		<path class="st0" d="M64.3,117.8c-10.5,0-19.1,8.1-19.1,18.1c0,10,8.5,18.1,19.1,18.1c10.5,0,19.1-8.1,19.1-18.1
			C83.4,125.9,74.9,117.8,64.3,117.8z M72.6,135.9c0,4.2-3.7,7.6-8.2,7.6c-4.5,0-8.2-3.4-8.2-7.6c0-4.2,3.7-7.6,8.2-7.6
			C68.9,128.3,72.6,131.7,72.6,135.9z"/>
		<path class="st0" d="M109.1,117.8c-10.5,0-19.1,8.1-19.1,18.1c0,10,8.5,18.1,19.1,18.1s19.1-8.1,19.1-18.1
			C128.2,125.9,119.6,117.8,109.1,117.8z M117.4,135.9c0,4.2-3.7,7.6-8.2,7.6s-8.2-3.4-8.2-7.6c0-4.2,3.7-7.6,8.2-7.6
			S117.4,131.7,117.4,135.9z"/>
		<path class="st0" d="M178.6,135.9c0-10-8.5-18.1-19.1-18.1c-10.5,0-19.1,8.1-19.1,18.1c0,10,8.5,18.1,19.1,18.1
			C170,153.9,178.6,145.8,178.6,135.9z M167.8,135.9c0,4.2-3.7,7.6-8.2,7.6s-8.2-3.4-8.2-7.6c0-4.2,3.7-7.6,8.2-7.6
			S167.8,131.7,167.8,135.9z"/>
		<path class="st0" d="M228.4,122.3c-2,0-4.2,0.1-6.7,0.3c-2.8-20.6-15.1-39.4-34.9-53.4c-20.5-14.5-47.2-22.5-75.3-22.5
			C50.3,46.8,0.5,84.8,0.5,131.6c0,25.4,14.6,49.2,40.1,65.3V255l51.5-39.8c6.3,0.9,12.9,1.3,19.5,1.3c18.9,0,37.5-3.8,54.2-10.9
			c12.7,17.7,36.5,28.6,62.7,28.6c8.5,0,16.9-1.2,24.8-3.4l32.5,22.4v-41.1c9.4-9.7,14.5-21.6,14.5-33.7
			C300.3,147.4,268.1,122.3,228.4,122.3z M228.4,132.8c33.7,0,61,20.4,61,45.4c0,10.2-5,20.8-13.8,29l-0.8,0.8l0,24.7l-19.4-13.3
			l-2.7,0.5l-0.3,0.1c-7.5,2.4-15.6,3.7-24.1,3.7c-21.6,0-42-8.8-52.8-22.7c29-15.6,46.4-40.7,47-67.8
			C224.6,132.9,226.5,132.8,228.4,132.8z M165.4,194.2c-16.2,7.7-34.8,11.7-53.8,11.7c-6.9,0-13.7-0.5-20.2-1.5l-2.4-0.4l-37.6,29.1
			v-42.1l-2.6-1.5c-23.9-14.2-37.6-35.4-37.6-58c0-41,45-74.4,100.3-74.4c53.9,0,97.8,31.3,100,71.3l0,0.1c0,0.5,0.1,1,0.1,1.5
			l0,0.3c0,0.4,0.1,0.8,0.1,1.2c0,24.8-16.6,47.8-44.5,61.7L165.4,194.2z"/>
	</g>
</g>
<g id="Capa_2" class="st1">
	<path class="st2" d="M264.6,155.5l-33.5,27.3l8.3,10.4l20.5-16.7c-3.6,56.6-49.6,101.8-106.1,103.2V262h-0.1V132.1h72.7v-13.4
		h-72.7V91.3c15.1-3.1,26.4-16.6,26.4-32.8c0-18.5-14.8-33.5-33.1-33.5c-18.2,0-33.1,15-33.1,33.5c0,16.2,11.4,29.7,26.4,32.8v27.4
		H67.8v13.4h72.7v147.1c-53.6-5.2-96-49.8-98.5-104.8l19.8,18.8l9-9.8l-34.4-31.2L3,179.5l8.3,10.4L32.1,173
		C34,237.7,86.6,289.7,151,289.7c62.9,0,114.6-49.7,118.7-112.4l20.2,19.2l9-9.8L264.6,155.5z M36.6,169.3L36.6,169.3L36.6,169.3
		L36.6,169.3z M127.3,58.5c0-11.1,8.9-20.1,19.8-20.1c10.9,0,19.8,9,19.8,20.1s-8.9,20.1-19.8,20.1
		C136.2,78.5,127.3,69.5,127.3,58.5z"/>
</g>
<g id="Capa_3" class="st1">
	<circle class="st3" cx="144.3" cy="155.2" r="131.8"/>
	<circle class="st3" cx="94.2" cy="142.2" r="13.6"/>
	<circle class="st3" cx="190.7" cy="142.2" r="13.6"/>
	<g class="st4">
		<path class="st5" d="M73.9,200.4c9.9,26.4,37.6,45.5,70.4,45.5c32.8,0,60.5-19,70.4-45.5"/>
	</g>
</g>
</svg>
