<?xml version="1.0" encoding="utf-8"?>
<!-- Generator: Adobe Illustrator 21.1.0, SVG Export Plug-In . SVG Version: 6.00 Build 0)  -->
<svg version="1.1" id="Capa_1" xmlns="http://www.w3.org/2000/svg" xmlns:xlink="http://www.w3.org/1999/xlink" x="0px" y="0px"
	 viewBox="0 0 257 239" style="enable-background:new 0 0 257 239;" xml:space="preserve">
<style type="text/css">
	.st0{fill:none;stroke:#FFFFFF;stroke-width:12;stroke-miterlimit:10;}
</style>
<path class="st0" d="M188.8,44.4c-20.2-5.5-38.1-0.3-53,15.3c-2.9,3.1-5,4.3-7.2,4.3s-4.2-1.2-6.9-4.1C111,48.4,97.8,42.4,82.3,42
	c-1.4,0.2-2.8,0.4-4.2,0.5c-2.1,0.2-4.3,0.5-6.4,0.9c-27.5,4.8-47.2,32.3-43.1,60.1c2.7,18.1,13.2,32.3,22,42.6
	c22.5,26.3,49.9,46.4,76.2,64.2c0.7,0.5,2.7,0.4,3.5-0.1c8.6-5.9,17.5-12,25.9-18.3c20.5-15.5,41.7-33,57.9-55.4
	c12-16.7,16.4-32.9,13.5-49.4C223.6,64.6,210.5,50.3,188.8,44.4z"/>
</svg>
